<svg width="145" height="36" viewBox="0 0 145 36" fill="none" xmlns="http://www.w3.org/2000/svg">
<path d="M10.4 4.536C12.768 4.536 14.8373 5.00533 16.608 5.944C18.3787 6.88267 19.744 8.20533 20.704 9.912C21.6853 11.5973 22.176 13.5493 22.176 15.768C22.176 17.9653 21.6853 19.9173 20.704 21.624C19.744 23.3307 18.368 24.6533 16.576 25.592C14.8053 26.5307 12.7467 27 10.4 27H1.984V4.536H10.4ZM10.048 22.264C12.1173 22.264 13.728 21.6987 14.88 20.568C16.032 19.4373 16.608 17.8373 16.608 15.768C16.608 13.6987 16.032 12.088 14.88 10.936C13.728 9.784 12.1173 9.208 10.048 9.208H7.456V22.264H10.048ZM33.362 27.256C31.6127 27.256 30.034 26.8827 28.626 26.136C27.2393 25.3893 26.1407 24.3227 25.33 22.936C24.5407 21.5493 24.146 19.928 24.146 18.072C24.146 16.2373 24.5513 14.6267 25.362 13.24C26.1727 11.832 27.282 10.7547 28.69 10.008C30.098 9.26133 31.6767 8.888 33.426 8.888C35.1753 8.888 36.754 9.26133 38.162 10.008C39.57 10.7547 40.6793 11.832 41.49 13.24C42.3007 14.6267 42.706 16.2373 42.706 18.072C42.706 19.9067 42.29 21.528 41.458 22.936C40.6473 24.3227 39.5273 25.3893 38.098 26.136C36.69 26.8827 35.1113 27.256 33.362 27.256ZM33.362 22.52C34.4073 22.52 35.2927 22.136 36.018 21.368C36.7647 20.6 37.138 19.5013 37.138 18.072C37.138 16.6427 36.7753 15.544 36.05 14.776C35.346 14.008 34.4713 13.624 33.426 13.624C32.3593 13.624 31.474 14.008 30.77 14.776C30.066 15.5227 29.714 16.6213 29.714 18.072C29.714 19.5013 30.0553 20.6 30.738 21.368C31.442 22.136 32.3167 22.52 33.362 22.52ZM63.241 9.144V27H57.769V24.568C57.2143 25.3573 56.457 25.9973 55.497 26.488C54.5583 26.9573 53.513 27.192 52.361 27.192C50.9957 27.192 49.7903 26.8933 48.745 26.296C47.6997 25.6773 46.889 24.792 46.313 23.64C45.737 22.488 45.449 21.1333 45.449 19.576V9.144H50.889V18.84C50.889 20.0347 51.1983 20.9627 51.817 21.624C52.4357 22.2853 53.2677 22.616 54.313 22.616C55.3797 22.616 56.2223 22.2853 56.841 21.624C57.4597 20.9627 57.769 20.0347 57.769 18.84V9.144H63.241ZM73.9555 8.888C75.2142 8.888 76.3128 9.144 77.2515 9.656C78.2115 10.168 78.9475 10.84 79.4595 11.672V9.144H84.9315V26.968C84.9315 28.6107 84.6008 30.0933 83.9395 31.416C83.2995 32.76 82.3075 33.8267 80.9635 34.616C79.6408 35.4053 77.9875 35.8 76.0035 35.8C73.3582 35.8 71.2142 35.1707 69.5715 33.912C67.9288 32.6747 66.9902 30.9893 66.7555 28.856H72.1635C72.3342 29.5387 72.7395 30.072 73.3795 30.456C74.0195 30.8613 74.8088 31.064 75.7475 31.064C76.8782 31.064 77.7742 30.7333 78.4355 30.072C79.1182 29.432 79.4595 28.3973 79.4595 26.968V24.44C78.9262 25.272 78.1902 25.9547 77.2515 26.488C76.3128 27 75.2142 27.256 73.9555 27.256C72.4835 27.256 71.1502 26.8827 69.9555 26.136C68.7608 25.368 67.8115 24.2907 67.1075 22.904C66.4248 21.496 66.0835 19.8747 66.0835 18.04C66.0835 16.2053 66.4248 14.5947 67.1075 13.208C67.8115 11.8213 68.7608 10.7547 69.9555 10.008C71.1502 9.26133 72.4835 8.888 73.9555 8.888ZM79.4595 18.072C79.4595 16.7067 79.0755 15.6293 78.3075 14.84C77.5608 14.0507 76.6435 13.656 75.5555 13.656C74.4675 13.656 73.5395 14.0507 72.7715 14.84C72.0248 15.608 71.6515 16.6747 71.6515 18.04C71.6515 19.4053 72.0248 20.4933 72.7715 21.304C73.5395 22.0933 74.4675 22.488 75.5555 22.488C76.6435 22.488 77.5608 22.0933 78.3075 21.304C79.0755 20.5147 79.4595 19.4373 79.4595 18.072ZM94.3623 3.32V27H88.8903V3.32H94.3623ZM97.2398 18.04C97.2398 16.2053 97.5811 14.5947 98.2638 13.208C98.9678 11.8213 99.9171 10.7547 101.112 10.008C102.306 9.26133 103.64 8.888 105.112 8.888C106.37 8.888 107.469 9.144 108.408 9.656C109.368 10.168 110.104 10.84 110.616 11.672V9.144H116.088V27H110.616V24.472C110.082 25.304 109.336 25.976 108.376 26.488C107.437 27 106.338 27.256 105.08 27.256C103.629 27.256 102.306 26.8827 101.112 26.136C99.9171 25.368 98.9678 24.2907 98.2638 22.904C97.5811 21.496 97.2398 19.8747 97.2398 18.04ZM110.616 18.072C110.616 16.7067 110.232 15.6293 109.464 14.84C108.717 14.0507 107.8 13.656 106.712 13.656C105.624 13.656 104.696 14.0507 103.928 14.84C103.181 15.608 102.808 16.6747 102.808 18.04C102.808 19.4053 103.181 20.4933 103.928 21.304C104.696 22.0933 105.624 22.488 106.712 22.488C107.8 22.488 108.717 22.0933 109.464 21.304C110.232 20.5147 110.616 19.4373 110.616 18.072ZM127.311 27.256C125.753 27.256 124.367 26.9893 123.151 26.456C121.935 25.9227 120.975 25.1973 120.271 24.28C119.567 23.3413 119.172 22.296 119.087 21.144H124.495C124.559 21.7627 124.847 22.264 125.359 22.648C125.871 23.032 126.5 23.224 127.247 23.224C127.929 23.224 128.452 23.096 128.815 22.84C129.199 22.5627 129.391 22.2107 129.391 21.784C129.391 21.272 129.124 20.8987 128.591 20.664C128.057 20.408 127.193 20.1307 125.999 19.832C124.719 19.5333 123.652 19.224 122.799 18.904C121.945 18.5627 121.209 18.04 120.591 17.336C119.972 16.6107 119.663 15.64 119.663 14.424C119.663 13.4 119.94 12.472 120.495 11.64C121.071 10.7867 121.903 10.1147 122.991 9.624C124.1 9.13333 125.412 8.888 126.927 8.888C129.167 8.888 130.927 9.44267 132.207 10.552C133.508 11.6613 134.255 13.1333 134.447 14.968H129.391C129.305 14.3493 129.028 13.8587 128.559 13.496C128.111 13.1333 127.513 12.952 126.767 12.952C126.127 12.952 125.636 13.08 125.295 13.336C124.953 13.5707 124.783 13.9013 124.783 14.328C124.783 14.84 125.049 15.224 125.583 15.48C126.137 15.736 126.991 15.992 128.143 16.248C129.465 16.5893 130.543 16.9307 131.375 17.272C132.207 17.592 132.932 18.1253 133.551 18.872C134.191 19.5973 134.521 20.5787 134.543 21.816C134.543 22.8613 134.244 23.8 133.647 24.632C133.071 25.4427 132.228 26.0827 131.119 26.552C130.031 27.0213 128.761 27.256 127.311 27.256Z" fill="#EDEDEF"/>
<path d="M140.45 27.256C139.49 27.256 138.701 26.9787 138.082 26.424C137.485 25.848 137.186 25.144 137.186 24.312C137.186 23.4587 137.485 22.744 138.082 22.168C138.701 21.592 139.49 21.304 140.45 21.304C141.389 21.304 142.157 21.592 142.754 22.168C143.373 22.744 143.682 23.4587 143.682 24.312C143.682 25.144 143.373 25.848 142.754 26.424C142.157 26.9787 141.389 27.256 140.45 27.256Z" fill="#107BEB"/>
</svg>
